<?xml version="1.0" standalone="no"?><!DOCTYPE svg PUBLIC "-//W3C//DTD SVG 1.1//EN" "http://www.w3.org/Graphics/SVG/1.1/DTD/svg11.dtd"><svg t="1678353765954" class="icon" viewBox="0 0 1024 1024" version="1.1" xmlns="http://www.w3.org/2000/svg" p-id="7045" xmlns:xlink="http://www.w3.org/1999/xlink" width="200" height="200"><path d="M511.997148 511.952416m-506.70115 0a506.70115 506.70115 0 1 0 1013.4023 0 506.70115 506.70115 0 1 0-1013.4023 0Z" fill="#FFFFFF" p-id="7046"></path><path d="M1022.751907 511.952416a510.754759 510.754759 0 1 0-509.464974 512.044544A497.488402 497.488402 0 0 0 706.294007 985.764055 495.461597 495.461597 0 0 0 906.947662 836.149024a508.635827 508.635827 0 0 0 115.804245-324.196608zM683.077882 946.79413c-56.566274 18.425496-110.552978 30.862706-169.790949 30.862706a466.165058 466.165058 0 1 1 355.059314-164.631809A458.057839 458.057839 0 0 1 683.077882 946.79413z" fill="#FA4D23" p-id="7047"></path><path d="M503.060782 704.95949s-185.268366 2.579569-288.174763-92.680246l-7.738708 131.281661s612.371371 221.105956 617.254128-133.769103c0 0 12.897847-84.941538-208.392364-144.087382a761.986402 761.986402 0 0 1-185.176238-77.202829s-54.078832-61.725413 100.326827-48.919693c182.688796 15.477417 277.856485 61.725413 277.856485 61.725413V285.595193s-416.600473-156.616719-578.74484 23.123998c0 0-53.986704 82.361969 2.579569 133.769104S402.641827 558.292539 551.888348 596.893954c0-2.579569 193.007074 87.42898-48.827566 108.065536z" fill="#FA4D23" p-id="7048"></path></svg>